<?xml version="1.0" encoding="UTF-8"?>
<svg id="Layer_1" data-name="Layer 1" xmlns="http://www.w3.org/2000/svg" viewBox="0 0 862.11 862.11">
  <defs>
    <style>
      .cls-1 {
        fill: #fff;
      }
    </style>
  </defs>
  <rect width="862.11" height="862.11" rx="219.33" ry="219.33"/>
  <g>
    <path class="cls-1" d="M233.68,275.25H105.25v-104.1h387.32v104.1h-131.13v351.49h-127.75v-351.49Z"/>
    <path class="cls-1" d="M488.51,520.62c20.96,12.84,69.62,27.71,102.07,27.71,27.71,0,37.85-5.41,37.85-16.9s-6.76-16.22-45.29-26.36c-77.73-20.28-108.15-60.83-107.48-103.42,0-67.6,60.84-115.59,152.76-115.59,45.29,0,86.52,10.14,108.15,20.28l-20.28,85.17c-16.9-8.11-52.72-20.28-82.47-20.28-20.95,0-34.47,4.06-34.47,17.57,0,10.81,11.49,17.57,54.08,29.07,69.62,18.93,98.69,52.05,99.37,104.77,0,61.51-49.34,112.21-160.88,112.21-52.05,0-95.31-10.82-125.05-25.01l21.63-89.23Z"/>
  </g>
</svg>